<?xml version="1.0" encoding="utf-8"?>
<!-- Generator: Adobe Illustrator 19.1.0, SVG Export Plug-In . SVG Version: 6.00 Build 0)  -->
<!DOCTYPE svg PUBLIC "-//W3C//DTD SVG 1.1//EN" "http://www.w3.org/Graphics/SVG/1.1/DTD/svg11.dtd">
<svg version="1.1" id="Calque_1" xmlns="http://www.w3.org/2000/svg" xmlns:xlink="http://www.w3.org/1999/xlink" x="0px" y="0px"
	 viewBox="-100.5 120.2 53.5 19" style="enable-background:new -100.5 120.2 53.5 19;" xml:space="preserve">
<style type="text/css">
	.st0{fill:#FFFFFF;}
</style>
<path class="st0" d="M-51,135.7c-0.6,0.7-1.2,0.9-1.4,0.9c-0.1,0-0.1-0.1-0.1-0.2c0-0.1-0.1-0.3-0.1-0.5s0-0.4,0-0.6s0-0.3,0-0.5
	c0-0.9,0.1-1.9,0.2-3c0.2-1,0.4-2,0.6-3c0.3-0.1,0.6-0.2,1.1-0.3c0.5-0.1,1-0.2,1.4-0.3c0.5-0.1,0.9-0.2,1.2-0.3
	c0.4-0.1,0.5-0.3,0.5-0.4c0-0.2-0.1-0.3-0.3-0.4s-0.4-0.1-0.7-0.2c-0.3,0-0.6,0-0.9,0c-0.3,0-0.6,0-0.8,0s-0.4,0-0.5,0
	c-0.2,0-0.4,0-0.6,0c0.2-0.9,0.3-1.6,0.5-2.3c0.2-0.6,0.3-1.2,0.4-1.6c0.1-0.4,0.2-0.8,0.3-1.1c0.1-0.3,0.1-0.5,0.1-0.6
	c0-0.3-0.2-0.4-0.5-0.4s-0.6,0.2-0.8,0.5s-0.4,0.7-0.6,1.1c-0.2,0.4-0.3,0.8-0.4,1.2c-0.1,0.4-0.2,0.7-0.2,0.9
	c-0.1,0.4-0.2,0.7-0.3,1c-0.1,0.3-0.2,0.6-0.3,0.8c-0.1,0.2-0.3,0.5-0.5,0.7c-0.2,0.2-0.4,0.5-0.8,0.7c-0.5,0.2-1,0.4-1.4,0.7
	c-0.4,0.3-0.6,0.5-0.6,0.8s0.1,0.5,0.4,0.5c0.2,0,0.4-0.1,0.7-0.2c0.3-0.1,0.8-0.2,1.6-0.4c-0.1,0.6-0.3,1.2-0.3,1.8
	c-0.1,0.6-0.2,1.2-0.2,1.9c0,0.3-0.1,0.7-0.1,1c0,0.4,0,0.7,0,1.1c0,0.3,0,0.6,0.1,1c0,0.4,0.1,0.7,0.3,1c0.1,0.3,0.3,0.6,0.5,0.8
	c0.2,0.2,0.5,0.3,0.8,0.3c0.4,0,0.8-0.1,1.2-0.4c0.4-0.3,0.8-0.7,1.3-1.1C-49.9,136.3-48.1,132.3-51,135.7z M-57.9,135.9l0.5,0.3
	l1.7-0.5c0.1,0,0.2-0.1,0.2-0.1c0.3,0,0.5,0.2,0.5,0.5c0,0.1-0.1,0.3-0.3,0.4c-0.2,0.2-0.5,0.3-0.7,0.4c-0.3,0.1-0.6,0.2-0.9,0.3
	c-0.3,0.1-0.5,0.1-0.7,0.1c-0.6,0-1.1-0.3-1.5-0.8c-0.4-0.6-0.6-1.3-0.6-2.4c0-0.4,0-0.8,0.1-1.2c0-0.4,0.1-0.7,0.1-1
	c-0.4,0.5-0.7,1-1,1.5s-0.6,1.1-0.9,1.6c-0.1,0.2-0.2,0.4-0.3,0.6s-0.2,0.5-0.3,0.7c-0.1,0.2-0.3,0.4-0.5,0.5
	c-0.2,0.1-0.4,0.2-0.6,0.2s-0.4-0.1-0.5-0.2c-0.1-0.1-0.2-0.3-0.3-0.5c-0.1,0.1-0.3,0.3-0.4,0.4c-0.3,0.3-0.6,0.5-1,0.8
	c-0.4,0.2-0.7,0.3-1.1,0.3c-0.3,0-0.5-0.1-0.7-0.2c-0.2-0.2-0.3-0.4-0.4-0.6s-0.2-0.5-0.2-0.8s0-0.5,0-0.8c-0.1,0.1-0.3,0.3-0.5,0.4
	c-0.2,0.2-0.4,0.3-0.6,0.5s-0.4,0.3-0.7,0.4c-0.2,0.1-0.4,0.2-0.6,0.2c-0.5,0-0.9-0.2-1.3-0.5c-0.2-0.2-0.3-0.5-0.4-0.8
	c-0.3,0.4-0.6,0.7-0.9,1c-0.4,0.4-0.8,0.8-1.3,1.1c-0.4,0.3-0.8,0.4-1.2,0.4c-0.3,0-0.6-0.1-0.8-0.3c-0.2-0.2-0.4-0.5-0.5-0.8
	s-0.2-0.7-0.3-1c-0.1-0.4-0.1-0.7-0.1-1c0-0.4,0-0.8,0-1.1c0-0.2,0-0.5,0.1-0.7c0,0,0,0-0.1,0c-0.3,0.2-0.6,0.4-1,0.6
	s-0.8,0.4-1.3,0.6c-0.4,0.2-0.8,0.4-1.1,0.6c0,0.6-0.1,1.1-0.3,1.6c-0.2,0.4-0.4,0.8-0.7,1.1c-0.3,0.3-0.6,0.5-1,0.6
	c-0.3,0.1-0.7,0.2-1,0.2c-0.5,0-0.8-0.1-1.1-0.4c-0.3-0.2-0.5-0.6-0.5-0.9c0-0.2,0.1-0.5,0.3-0.7c0.2-0.2,0.4-0.5,0.7-0.7
	c0.3-0.2,0.5-0.4,0.8-0.6c0.3-0.2,0.5-0.3,0.7-0.4c-0.1-0.7-0.2-1.3-0.3-2c-0.1-0.6-0.2-1.2-0.2-1.8c-0.5,0.5-2.6,3.7-3.1,4.2
	s-0.9,1.4-1.2,2c-0.1,0.1-0.1,0.1-0.2,0.1l0,0l0,0c-0.1,0-0.2,0.1-0.2,0.1l0,0c-0.1,0-0.3,0-0.4,0c-0.6,0-1.1-0.3-1.5-0.8
	c-0.4-0.6-0.6-1.3-0.6-2.4c0-0.4,0-0.8,0.1-1.2c0-0.4,0.1-0.7,0.1-1c-0.4,0.5-0.7,1-1,1.5c-0.3,0.5-0.6,1.1-0.9,1.6
	c-0.1,0.2-0.2,0.4-0.3,0.6s-0.2,0.5-0.3,0.7s-0.3,0.4-0.5,0.5c-0.2,0.1-0.4,0.2-0.6,0.2s-0.4-0.1-0.5-0.2c-0.1-0.1-0.2-0.3-0.3-0.6
	c0-0.1,0-0.3,0-0.5c-0.7,0.5-1.4,0.9-2,1.2c-0.7,0.3-1.4,0.5-1.9,0.5c-0.6,0-1-0.2-1.3-0.6c-0.3-0.4-0.4-0.9-0.4-1.4
	c0-1.1,0.2-2,0.5-2.8c0.3-0.8,0.6-1.6,0.9-2.3c0.2-0.3,0.5-0.4,0.6-0.4c0.2,0,0.3,0.2,0.3,0.5c-0.2,0.9-0.3,1.8-0.5,2.6
	c-0.2,0.8-0.2,1.5-0.2,2s0.1,0.8,0.3,0.8c0.1,0.1,0.3,0.1,0.5,0.1c0.5,0,1-0.1,1.6-0.4s1.1-0.6,1.5-1c0.1,0,0.1,0,0.2,0
	c0-0.2,0.1-0.3,0.1-0.5c0.1-0.4,0.2-0.8,0.3-1.1c0.1-0.4,0.2-0.7,0.3-1l0,0c0-0.2,0-0.4,0-0.6s0-0.5,0.1-0.7c0-0.2,0.1-0.4,0.2-0.6
	c0.1-0.2,0.2-0.2,0.4-0.2c0.3,0,0.4,0.1,0.5,0.3l0,0c0,0.2,0,0.5,0.1,0.7c0,0.2,0,0.5,0,0.7c0,0.1,0,0.1,0,0.2c0,0.1,0,0.1,0,0.2
	c0.1-0.2,0.3-0.6,0.6-0.9c0.2-0.4,0.5-0.7,0.8-1.1c0.3-0.3,0.5-0.6,0.8-0.9c0.3-0.2,0.5-0.4,0.7-0.4c0.5,0,0.8,0.1,1,0.4
	c0.2,0.2,0.3,0.5,0.3,0.7c0,0.8-0.1,1.6-0.2,2.4c-0.2,0.8-0.2,1.6-0.2,2.4c0,0.2,0,0.4,0,0.6s0,0.3,0.1,0.5c0.2,0.2,0.5,0.2,1-0.6
	v0.2c0.7-1.3,1.6-3,1.9-3.4c0.4-0.6,0.8-1.1,1.2-1.6s0.8-1,1.2-1.4c0.4-0.4,0.6-0.8,0.8-1.1c0-0.2,0.1-0.3,0.3-0.4
	c0.2-0.1,0.4-0.1,0.5-0.1c0.2,0,0.4,0.1,0.6,0.2c0.2,0.2,0.2,0.4,0.2,0.7c-0.3,1-0.4,1.9-0.4,2.9c0,0.5,0.1,1,0.2,1.4
	c0.1,0.5,0.2,0.9,0.4,1.4c0.6-0.3,1.1-0.5,1.7-0.7s1.1-0.5,1.6-0.7c0.1,0,0.2-0.1,0.3-0.1s0.1,0,0.2,0c0-0.4,0.1-0.9,0.2-1.3
	c0.1-0.6,0.2-1.2,0.3-1.8c-0.7,0.2-1.2,0.3-1.6,0.4c-0.3,0.1-0.5,0.2-0.7,0.2c-0.2,0-0.4-0.2-0.4-0.5s0.2-0.6,0.6-0.8
	c0.4-0.3,0.9-0.5,1.4-0.7c0.3-0.3,0.6-0.5,0.8-0.7c0.2-0.2,0.3-0.5,0.5-0.7c0.2-0.2,0.2-0.5,0.3-0.8s0.2-0.6,0.3-1
	c0.1-0.2,0.1-0.5,0.2-0.9c0.1-0.4,0.2-0.8,0.4-1.2c0.2-0.4,0.3-0.8,0.6-1.1c0.2-0.3,0.5-0.5,0.8-0.5c0.3,0,0.5,0.1,0.5,0.4
	c0,0.2,0,0.4-0.1,0.6c-0.1,0.3-0.1,0.6-0.3,1.1c-0.1,0.4-0.2,1-0.4,1.6c-0.2,0.6-0.3,1.4-0.5,2.3c0.2,0,0.4,0,0.6,0s0.4,0,0.5,0
	c0.2,0,0.5,0,0.8,0c0.3,0,0.6,0,0.9,0s0.5,0.1,0.7,0.2c0.2,0.1,0.3,0.2,0.3,0.4c0,0.2-0.2,0.3-0.5,0.4c-0.4,0.1-0.8,0.2-1.2,0.3
	c-0.5,0.1-1,0.2-1.4,0.3c-0.5,0.1-0.9,0.2-1.1,0.3c-0.2,0.9-0.4,1.9-0.6,3c-0.2,1-0.2,2-0.2,3c0,0.1,0,0.3,0,0.5s0,0.4,0,0.6
	s0,0.4,0.1,0.5c0,0.1,0.1,0.2,0.1,0.2c0.2,0,0.7-0.3,1.4-0.9c0.5-0.5,1.1-1.1,1.7-1.9c0.1-0.3,0.1-0.6,0.2-0.9c0.3-0.7,0.6-1.4,1-2
	c0.4-0.6,0.9-1.1,1.3-1.4c0.5-0.3,1-0.5,1.4-0.5c0.4,0,0.8,0.1,1.1,0.4c0.3,0.3,0.4,0.6,0.4,1v0.1c0,0.1,0,0.1,0,0.1v0.1h0.1h0.1
	c0.3,0,0.5,0.1,0.6,0.3c0.1,0.2,0.2,0.4,0.2,0.7c-0.1,0.2-0.1,0.6-0.3,1c-0.1,0.4-0.2,0.8-0.3,1.2c-0.1,0.4-0.2,0.8-0.3,1.2
	s-0.1,0.8-0.1,1.1c0,0.2,0,0.3,0.1,0.5c0.3,0,0.6-0.1,0.8-0.3c0.3-0.2,0.5-0.4,0.8-0.7c0.2-0.2,0.5-0.5,0.7-0.7
	c0.1-0.1,0.2-0.2,0.3-0.2c0.1-0.2,0.1-0.4,0.2-0.6c0.1-0.4,0.2-0.8,0.3-1.1c0.1-0.4,0.2-0.7,0.3-1l0,0c0-0.2,0-0.4,0-0.6
	s0-0.5,0.1-0.7c0-0.2,0.1-0.4,0.2-0.6s0.2-0.2,0.4-0.2c0.3,0,0.4,0.1,0.5,0.3l0,0c0,0.2,0,0.5,0.1,0.7c0,0.2,0,0.5,0,0.7
	c0,0.1,0,0.1,0,0.2c0,0.1,0,0.1,0,0.2c0.1-0.2,0.3-0.6,0.6-0.9c0.2-0.4,0.5-0.7,0.8-1.1c0.3-0.3,0.5-0.6,0.8-0.9
	c0.3-0.2,0.5-0.4,0.7-0.4c0.5,0,0.8,0.1,1,0.4c0.2,0.2,0.3,0.5,0.3,0.7c0,0.8-0.1,1.6-0.2,2.4c-0.2,0.8-0.2,1.6-0.2,2.4
	c0,0.2,0,0.4,0,0.6C-58,135.4-58,135.7-57.9,135.9z M-67.2,130.5v-0.2l-0.7-0.2c-0.4,0.2-0.7,0.5-1,0.9c-0.3,0.3-0.5,0.7-0.7,1.1
	c-0.2,0.4-0.3,0.8-0.4,1.3c-0.1,0.5-0.1,0.9-0.1,1.3v0.3c0.4-0.2,0.8-0.5,1-0.9c0.3-0.3,0.5-0.7,0.7-1.1c0.2-0.4,0.4-0.8,0.7-1.1
	c0.2-0.4,0.5-0.7,0.8-1C-67.1,130.9-67.2,130.8-67.2,130.5z M-97,126.3c-0.2,0-0.3-0.1-0.4-0.2c-0.1-0.1-0.2-0.3-0.2-0.4
	c0-0.2,0.1-0.3,0.2-0.4s0.3-0.2,0.4-0.2c0.2,0,0.3,0,0.5,0.1c0.1,0.2,0.2,0.3,0.2,0.4c0,0.2-0.1,0.3-0.2,0.4
	C-96.7,126.2-96.8,126.3-97,126.3z"/>
</svg>
