<?xml version="1.0" encoding="utf-8"?>
<!-- Generator: Adobe Illustrator 19.1.0, SVG Export Plug-In . SVG Version: 6.00 Build 0)  -->
<!DOCTYPE svg PUBLIC "-//W3C//DTD SVG 1.1//EN" "http://www.w3.org/Graphics/SVG/1.1/DTD/svg11.dtd">
<svg version="1.1" id="Calque_1" xmlns="http://www.w3.org/2000/svg" xmlns:xlink="http://www.w3.org/1999/xlink" x="0px" y="0px"
	 viewBox="0 0 221.3 32.1" style="enable-background:new 0 0 221.3 32.1;" xml:space="preserve">
<style type="text/css">
	.st0{fill:#FFFFFF;}
</style>
<g>
	<path class="st0" d="M5.8,21c0.1,0,0.3,0,0.4,0c0.1,0,0.3,0,0.4,0c0.7,0,1.1,0.2,1.1,0.5c0,0.2-0.1,0.4-0.3,0.5
		c-0.2,0.2-0.5,0.3-0.8,0.4c-0.3,0.1-0.7,0.2-1.1,0.2c-0.4,0-0.8,0.1-1.2,0.1c-1.3,0-2.3-0.3-3.1-0.9C0.4,21.2,0,20.2,0,18.6
		c0-1.1,0.4-2.4,1.1-3.8c0.7-1.4,1.6-2.8,2.7-4.1c1.1-1.3,2.2-2.5,3.3-3.7c1.2-1.1,2.2-2,3.1-2.6c0.2-0.1,0.4-0.3,0.8-0.5
		c0.3-0.2,0.7-0.5,1.1-0.7c0.4-0.2,0.8-0.4,1.3-0.5c0.4-0.2,0.9-0.2,1.3-0.2c0.5,0,0.9,0.2,1.1,0.5c0.3,0.3,0.5,0.7,0.7,1.1
		c0.1,0.5,0.2,0.9,0.3,1.5c0.1,0.5,0.1,1,0.1,1.5c0,1.3-0.1,2.8-0.2,4.3c-0.1,1.5-0.3,3.1-0.4,4.7c-0.2,1.6-0.3,3.2-0.5,4.9
		c-0.2,1.6-0.4,3.3-0.6,4.8c1-1.8,2-3.6,3-5.5c1-1.9,2-3.9,3.1-5.8c1-1.9,2.1-3.8,3.1-5.7c1-1.9,2.1-3.7,3.1-5.3
		C27.6,3.2,27.8,3,28,3c0.5,0,0.7,0.2,0.7,0.7c0,0.1,0,0.2-0.1,0.4c-0.9,1.8-1.7,3.5-2.5,5.1s-1.6,3.3-2.4,4.9
		c-0.8,1.6-1.6,3.2-2.4,4.8s-1.7,3.3-2.5,5c-0.2,0.5-0.5,1.1-0.9,1.9s-0.7,1.6-1.1,2.4c-0.4,0.8-0.8,1.5-1.1,2.2
		c-0.4,0.7-0.7,1.1-0.9,1.3c-0.2,0.3-0.5,0.4-0.9,0.4c-0.4,0-0.7-0.1-1.1-0.4c-0.3-0.3-0.6-0.6-0.7-1l-0.1,0l0.1-0.1
		c0-1.7,0.1-3.4,0.3-5.1c0.2-1.7,0.3-3.4,0.5-5.1c0.2-1.7,0.4-3.4,0.6-5.1c0.2-1.7,0.4-3.4,0.4-5.1c0-0.5,0.1-1.1,0.1-1.6
		c0.1-0.6,0.1-1.1,0.1-1.7c0-0.5,0-0.9-0.1-1.4l0-0.3c-1,0.4-2,0.9-3,1.6c-1,0.7-1.9,1.4-2.8,2.2c-0.9,0.8-1.7,1.7-2.5,2.6
		c-0.8,0.9-1.4,1.8-2,2.8c-0.6,0.9-1,1.8-1.3,2.6c-0.3,0.8-0.5,1.6-0.5,2.2c0,0.8,0.3,1.2,0.9,1.5c0.6,0.2,1.3,0.3,2,0.3
		c0.2,0,0.4,0,0.5,0C5.5,21,5.7,21,5.8,21z"/>
	<path class="st0" d="M24.3,19.1C24.3,19.1,24.3,19.2,24.3,19.1c1.3-0.5,2.7-1,4.1-1.4c1.4-0.4,2.8-0.8,4.2-1.1
		c0.6,0,0.8,0.2,0.8,0.7c0,0.3-0.1,0.5-0.4,0.7c-0.9,0.4-1.9,0.8-2.8,1.2s-1.8,0.8-2.7,1.3c0.3,0.4,0.4,0.9,0.4,1.5
		c0,0.4-0.1,1-0.3,1.7c-0.2,0.7-0.5,1.4-0.9,2c-0.4,0.7-0.8,1.3-1.4,1.9c-0.6,0.6-1.2,1-1.9,1.3c-0.3,0.1-0.6,0.2-0.9,0.2
		c-0.3,0-0.7,0-1,0.1c-0.5-0.1-1-0.4-1.4-0.9c-0.4-0.6-0.6-1.3-0.6-2c0-0.6,0.1-1.4,0.4-2.3c0.3-0.9,0.6-1.8,1-2.6
		c0.4-0.8,0.8-1.6,1.3-2.2c0.5-0.6,0.9-0.9,1.3-0.9c0.3,0,0.5,0.1,0.7,0.4L24.3,19.1L24.3,19.1z M23.9,21.8c-0.5-0.3-0.8-0.6-0.9-1
		c-0.4,0.9-0.7,1.8-0.8,2.7c-0.1,1-0.2,1.9-0.2,2.8c0.5-0.1,0.9-0.3,1.3-0.7c0.4-0.4,0.7-0.9,1-1.4c0.3-0.5,0.5-1,0.6-1.4
		c0.2-0.4,0.2-0.7,0.2-0.7v-0.1c-0.2-0.1-0.4-0.1-0.6-0.1C24.3,21.9,24.1,21.8,23.9,21.8z"/>
	<path class="st0" d="M31.4,22.8c0.1-1,0.2-1.9,0.3-2.8s0.3-1.9,0.5-2.8c-1.1,0.2-1.8,0.4-2.3,0.6c-0.5,0.2-0.8,0.3-1,0.3
		c-0.4,0-0.5-0.2-0.5-0.7c0-0.4,0.3-0.9,0.9-1.3s1.2-0.8,2-1.1c0.5-0.4,0.8-0.8,1.1-1.1c0.3-0.3,0.5-0.7,0.7-1.1
		c0.2-0.4,0.3-0.8,0.4-1.2c0.1-0.4,0.3-1,0.4-1.6c0.1-0.3,0.2-0.7,0.3-1.3c0.1-0.6,0.3-1.2,0.5-1.8c0.2-0.6,0.5-1.2,0.8-1.6
		c0.3-0.5,0.7-0.7,1.2-0.7c0.5,0,0.7,0.2,0.7,0.7c0,0.2,0,0.6-0.1,1c-0.1,0.4-0.2,1-0.4,1.6c-0.2,0.7-0.4,1.5-0.6,2.5
		c-0.2,1-0.5,2.1-0.7,3.5c0.3,0,0.6,0,0.8,0c0.3,0,0.5,0,0.8,0c0.3,0,0.7,0,1.2,0c0.5,0,0.9,0,1.3,0.1c0.4,0,0.8,0.1,1.1,0.2
		c0.3,0.1,0.4,0.3,0.4,0.6c0,0.3-0.3,0.5-0.8,0.7c-0.5,0.2-1.1,0.3-1.8,0.5c-0.7,0.1-1.4,0.3-2.1,0.4c-0.7,0.1-1.2,0.3-1.6,0.4
		c-0.3,1.4-0.6,2.9-0.8,4.5c-0.2,1.6-0.4,3.1-0.4,4.5c0,0.2,0,0.4,0,0.7c0,0.3,0,0.6,0,0.9c0,0.3,0,0.6,0.1,0.8
		c0,0.2,0.1,0.3,0.2,0.3c0.3,0,1-0.5,2-1.4c1-1,2.1-2.3,3.2-4.1c0.1-0.1,0.3-0.2,0.5-0.2s0.4,0.1,0.5,0.2c0.1,0.1,0.2,0.3,0.2,0.5
		c0,0.1-0.1,0.3-0.2,0.5c-0.4,0.8-0.9,1.6-1.5,2.5c-0.6,0.9-1.2,1.6-1.8,2.3c-0.6,0.7-1.2,1.2-1.8,1.7S34.1,31,33.6,31
		c-0.5,0-0.9-0.2-1.2-0.5s-0.6-0.8-0.7-1.3c-0.2-0.5-0.3-1-0.4-1.6c-0.1-0.6-0.1-1.1-0.1-1.5c0-0.6,0-1.2,0.1-1.7
		C31.3,23.8,31.3,23.3,31.4,22.8z"/>
	<path class="st0" d="M37.5,26.6C37.5,26.6,37.4,26.6,37.5,26.6c-0.1,0-0.1,0-0.2,0c-0.2,0-0.4-0.1-0.5-0.2
		c-0.1-0.2-0.2-0.3-0.2-0.5c0-0.3,0.1-0.5,0.3-0.7c0.3-0.5,0.6-1.1,1-2c0.4-0.9,0.9-1.8,1.3-2.7c0.4-0.9,0.9-1.8,1.3-2.7
		c0.4-0.8,0.7-1.4,1-1.8c0.2-0.2,0.5-0.4,0.8-0.4c0.3,0,0.6,0.1,0.9,0.3c0.6,0.8,1.1,1.5,1.5,2c0.4,0.6,0.7,1.1,1,1.6
		c0.3,0.5,0.5,1,0.6,1.4c0.1,0.5,0.2,0.9,0.2,1.5c0,0.6-0.1,1.4-0.2,2.2c-0.2,0.8-0.4,1.8-0.6,3c0.7-0.1,1.4-0.4,2.1-0.6
		s1.3-0.5,2-0.8c0.1-0.1,0.2-0.1,0.4-0.1c0.2,0,0.4,0.1,0.5,0.2c0.1,0.1,0.2,0.3,0.2,0.5c0,0.2-0.2,0.5-0.7,0.8
		c-0.4,0.3-1,0.6-1.6,0.9c-0.6,0.3-1.2,0.6-1.9,0.9c-0.6,0.3-1.2,0.5-1.5,0.6h-0.4c-0.5,0-0.9-0.3-1.3-0.8c-0.3-0.5-0.5-1-0.5-1.4
		c0-0.5,0.1-1,0.2-1.5c0.1-0.5,0.2-1,0.3-1.5c0.1-0.6,0.1-1.2,0.1-1.8c0-0.8-0.1-1.5-0.3-2.2c-0.2-0.7-0.6-1.4-1.1-2.2
		c-0.1,0.2-0.3,0.5-0.5,0.9c-0.2,0.4-0.5,0.9-0.8,1.5c-0.3,0.6-0.6,1.1-0.9,1.7c-0.3,0.6-0.6,1.2-0.9,1.7c-0.3,0.5-0.6,1-0.9,1.4
		C37.9,26.3,37.7,26.5,37.5,26.6z"/>
	<path class="st0" d="M57.7,19.8c-0.3,0.6-0.6,1.2-0.9,1.8c-0.3,0.6-0.7,1.2-1.1,1.7c-0.4,0.5-0.9,1-1.4,1.4
		c-0.5,0.4-1.1,0.7-1.7,0.9c0,0.6,0.1,1.2,0.3,1.8c0.2,0.6,0.5,0.9,1.1,0.9c0.1,0,0.3,0,0.5,0c0.2,0,0.3-0.1,0.5-0.3
		c0.2-0.1,0.4-0.2,0.8-0.5c0.3-0.2,0.7-0.5,1.1-0.8c0.4-0.3,0.8-0.6,1.1-1c0.4-0.4,0.6-0.7,0.8-1.1c0.1-0.2,0.2-0.3,0.4-0.3
		c0.2,0,0.4,0.1,0.6,0.3c0.2,0.2,0.3,0.4,0.3,0.6c0,0.2-0.2,0.5-0.5,1c-0.4,0.4-0.8,0.9-1.2,1.4c-0.5,0.5-0.9,0.9-1.4,1.3
		c-0.5,0.4-0.9,0.7-1.1,0.8c-0.1,0-0.3,0.2-0.8,0.4c-0.4,0.2-0.8,0.4-1.1,0.4c-0.6,0-1.2-0.1-1.7-0.4c-0.5-0.3-0.9-0.6-1.2-1.1
		c-0.3-0.4-0.5-0.9-0.7-1.5c-0.1-0.6-0.2-1.2-0.2-1.8c-0.2-0.1-0.3-0.2-0.3-0.5c0-0.2,0.1-0.4,0.2-0.5c0-0.4,0-0.7,0-1.1
		c0-0.4,0.1-0.7,0.2-1.1c0.2-0.6,0.4-1.3,0.7-2.2c0.3-0.9,0.7-1.7,1.2-2.4c0.5-0.8,1-1.4,1.7-2c0.6-0.5,1.4-0.8,2.2-0.8
		s1.4,0.3,1.7,0.8c0.3,0.5,0.4,1.2,0.4,1.9c0,0.4,0,0.8-0.1,1.2S57.8,19.5,57.7,19.8z M55.6,17.9c-0.3,0.2-0.6,0.6-0.9,1
		c-0.3,0.5-0.6,0.9-0.8,1.5c-0.2,0.5-0.5,1.1-0.7,1.6c-0.2,0.6-0.4,1.1-0.5,1.5c0.4-0.3,0.8-0.9,1.3-1.8c0.1-0.2,0.3-0.5,0.4-0.8
		c0.2-0.3,0.3-0.6,0.5-1c0.1-0.4,0.3-0.7,0.4-1.1S55.6,18.2,55.6,17.9z"/>
	<path class="st0" d="M69,19.1c0.4-0.4,0.7-0.7,0.9-0.7c0.3,0,0.5,0.3,0.5,0.8c-0.2,1.4-0.5,2.8-0.7,4c-0.2,1.2-0.3,2.2-0.3,3
		c0,0.8,0.2,1.2,0.5,1.3c0.2,0.1,0.4,0.1,0.7,0.1c0.7,0,1.5-0.2,2.4-0.6c0.9-0.4,1.6-0.9,2.2-1.6c0.2-0.1,0.3-0.1,0.4-0.1
		c0.2,0,0.4,0.1,0.5,0.2c0.1,0.1,0.2,0.3,0.2,0.5c0,0.1-0.1,0.3-0.2,0.5c-1.5,1.2-2.8,2.1-3.9,2.6c-1.1,0.5-2,0.7-2.8,0.7
		c-0.9,0-1.5-0.3-1.9-0.9c-0.4-0.6-0.6-1.3-0.6-2.2c0-1.6,0.2-3,0.7-4.3C68.1,21.3,68.5,20.2,69,19.1z M71.9,11
		c0.1,0.2,0.2,0.5,0.2,0.7c0,0.3-0.1,0.5-0.2,0.7c-0.2,0.2-0.4,0.3-0.6,0.3c-0.2,0-0.4-0.1-0.6-0.3c-0.2-0.2-0.3-0.4-0.3-0.6
		c0-0.2,0.1-0.4,0.3-0.6c0.2-0.2,0.4-0.3,0.6-0.3C71.5,10.8,71.7,10.9,71.9,11z"/>
	<path class="st0" d="M78.1,18.6c0,0.4,0.1,0.7,0.1,1.1s0,0.7,0,1.1c0,0.1,0,0.2,0,0.3c0,0.1,0,0.2,0,0.3c0.2-0.4,0.5-0.9,0.8-1.4
		c0.4-0.6,0.7-1.1,1.1-1.6c0.4-0.5,0.8-1,1.2-1.4c0.4-0.4,0.7-0.6,1-0.6c0.7,0,1.2,0.2,1.5,0.6c0.3,0.4,0.4,0.7,0.4,1.1
		c0,1.3-0.1,2.5-0.4,3.7c-0.2,1.2-0.4,2.4-0.4,3.7c0,0.3,0,0.6,0,1c0,0.3,0.1,0.6,0.1,1l0.7,0.5l2.4-0.7C87,27,87.1,27,87.2,27
		c0.5,0,0.7,0.2,0.7,0.7c0,0.2-0.2,0.4-0.5,0.7c-0.3,0.2-0.7,0.4-1.1,0.6c-0.4,0.2-0.8,0.3-1.3,0.5c-0.4,0.1-0.8,0.2-1,0.2
		c-0.8,0-1.5-0.4-2.1-1.3c-0.6-0.9-0.9-2.1-0.9-3.6c0-0.6,0-1.2,0.1-1.8c0.1-0.6,0.1-1.1,0.2-1.5c-0.6,0.7-1.1,1.5-1.5,2.3
		c-0.4,0.8-0.9,1.6-1.3,2.5c-0.1,0.3-0.3,0.6-0.4,0.9c-0.1,0.4-0.3,0.7-0.5,1c-0.2,0.3-0.4,0.6-0.7,0.8s-0.6,0.3-0.9,0.3
		c-0.3,0-0.6-0.1-0.8-0.3c-0.2-0.2-0.3-0.5-0.4-0.9c0-0.5,0.1-1.1,0.2-1.7c0.1-0.6,0.3-1.2,0.4-1.8c0.2-0.6,0.3-1.2,0.5-1.7
		c0.2-0.6,0.3-1.1,0.4-1.6v0c0-0.3,0.1-0.6,0.1-0.9c0-0.4,0-0.7,0.1-1.1c0-0.3,0.1-0.6,0.2-0.9c0.1-0.2,0.3-0.4,0.5-0.4
		C77.7,18,78,18.2,78.1,18.6L78.1,18.6z"/>
	<path class="st0" d="M87.8,24.3c-0.2,0.2-0.4,0.4-0.6,0.4c-0.2,0-0.4-0.1-0.5-0.2c-0.1-0.1-0.2-0.3-0.2-0.6v-0.2
		c0.4-0.8,0.8-1.6,1.4-2.5c0.6-0.9,1.2-1.7,1.8-2.5s1.2-1.5,1.7-2.2c0.5-0.7,0.9-1.2,1.1-1.7c0-0.3,0.2-0.5,0.5-0.6
		c0.3-0.1,0.6-0.2,0.7-0.2c0.4,0,0.6,0.1,0.9,0.4c0.2,0.2,0.3,0.6,0.3,1.1c-0.4,1.5-0.6,2.9-0.6,4.4c0,0.8,0.1,1.5,0.2,2.2
		s0.3,1.4,0.5,2.2c0.8-0.4,1.6-0.8,2.4-1.1c0.8-0.4,1.6-0.7,2.4-1.1c0.2-0.1,0.3-0.1,0.4-0.1c0.2,0,0.4,0.1,0.5,0.2
		c0.1,0.1,0.2,0.3,0.2,0.5c0,0.2-0.2,0.5-0.6,0.7c-0.4,0.3-0.9,0.6-1.5,0.9c-0.6,0.3-1.2,0.6-1.8,0.9c-0.6,0.3-1.2,0.6-1.7,0.9
		c0,0.9-0.1,1.7-0.4,2.4c-0.3,0.7-0.6,1.2-1.1,1.6c-0.4,0.4-0.9,0.7-1.4,0.9c-0.5,0.2-1,0.3-1.4,0.3c-0.7,0-1.2-0.2-1.7-0.6
		c-0.4-0.4-0.7-0.8-0.7-1.4c0-0.4,0.1-0.7,0.4-1.1c0.3-0.4,0.6-0.7,1-1.1c0.4-0.4,0.8-0.7,1.2-0.9c0.4-0.3,0.7-0.5,1-0.6
		c-0.2-1.1-0.3-2.1-0.5-3c-0.1-0.9-0.2-1.9-0.2-2.8c-0.7,0.7-1.4,1.4-2.1,2.2C88.9,22.7,88.3,23.5,87.8,24.3z"/>
	<path class="st0" d="M100,22.8c0.1-1,0.2-1.9,0.3-2.8s0.3-1.9,0.5-2.8c-1.1,0.2-1.8,0.4-2.3,0.6c-0.5,0.2-0.8,0.3-1,0.3
		c-0.4,0-0.5-0.2-0.5-0.7c0-0.4,0.3-0.9,0.9-1.3s1.2-0.8,2-1.1c0.5-0.4,0.8-0.8,1.1-1.1c0.3-0.3,0.5-0.7,0.7-1.1
		c0.2-0.4,0.3-0.8,0.4-1.2c0.1-0.4,0.3-1,0.4-1.6c0.1-0.3,0.2-0.7,0.3-1.3c0.1-0.6,0.3-1.2,0.5-1.8c0.2-0.6,0.5-1.2,0.8-1.6
		c0.3-0.5,0.7-0.7,1.2-0.7c0.5,0,0.7,0.2,0.7,0.7c0,0.2,0,0.6-0.1,1c-0.1,0.4-0.2,1-0.4,1.6c-0.2,0.7-0.4,1.5-0.6,2.5
		c-0.2,1-0.5,2.1-0.7,3.5c0.3,0,0.6,0,0.8,0c0.3,0,0.5,0,0.8,0c0.3,0,0.7,0,1.2,0c0.5,0,0.9,0,1.3,0.1c0.4,0,0.8,0.1,1.1,0.2
		c0.3,0.1,0.4,0.3,0.4,0.6c0,0.3-0.3,0.5-0.8,0.7c-0.5,0.2-1.1,0.3-1.8,0.5c-0.7,0.1-1.4,0.3-2.1,0.4c-0.7,0.1-1.2,0.3-1.6,0.4
		c-0.3,1.4-0.6,2.9-0.8,4.5c-0.2,1.6-0.4,3.1-0.4,4.5c0,0.2,0,0.4,0,0.7c0,0.3,0,0.6,0,0.9c0,0.3,0,0.6,0.1,0.8
		c0,0.2,0.1,0.3,0.2,0.3c0.3,0,1-0.5,2-1.4c1-1,2.1-2.3,3.2-4.1c0.1-0.1,0.3-0.2,0.5-0.2s0.4,0.1,0.5,0.2c0.1,0.1,0.2,0.3,0.2,0.5
		c0,0.1-0.1,0.3-0.2,0.5c-0.4,0.8-0.9,1.6-1.5,2.5c-0.6,0.9-1.2,1.6-1.8,2.3c-0.6,0.7-1.2,1.2-1.8,1.7c-0.6,0.4-1.2,0.7-1.7,0.7
		c-0.5,0-0.9-0.2-1.2-0.5s-0.6-0.8-0.7-1.3c-0.2-0.5-0.3-1-0.4-1.6c-0.1-0.6-0.1-1.1-0.1-1.5c0-0.6,0-1.2,0.1-1.7
		C99.9,23.8,100,23.3,100,22.8z"/>
	<path class="st0" d="M114.4,19.1c0,0.1,0,0.2,0,0.2c0,0.1,0,0.1-0.1,0.2c0.1,0,0.1,0,0.2,0c0,0,0.1,0,0.2,0c0.4,0,0.7,0.1,0.9,0.4
		c0.2,0.3,0.3,0.7,0.3,1.1c-0.1,0.4-0.2,0.9-0.4,1.5c-0.2,0.6-0.3,1.2-0.5,1.8c-0.2,0.6-0.3,1.3-0.5,1.9c-0.1,0.6-0.2,1.2-0.2,1.6
		c0,0.3,0,0.5,0.1,0.7c0.4,0,0.8-0.2,1.2-0.5c0.4-0.3,0.7-0.7,1.1-1c0.4-0.4,0.7-0.7,1-1c0.3-0.3,0.6-0.5,0.8-0.5
		c0.5,0,0.7,0.2,0.7,0.7c0,0.2-0.1,0.4-0.2,0.6c-0.1,0.1-0.4,0.4-0.7,0.8c-0.3,0.4-0.7,0.8-1.2,1.3c-0.4,0.4-0.9,0.8-1.5,1.2
		c-0.5,0.4-1.1,0.5-1.6,0.5c-0.4,0-0.7-0.1-1-0.4c-0.3-0.2-0.5-0.6-0.6-0.9c-0.1-0.4-0.2-0.8-0.3-1.2c0-0.4-0.1-0.8-0.1-1.1
		c-0.2,0.2-0.4,0.4-0.7,0.6c-0.3,0.2-0.6,0.5-0.9,0.7c-0.3,0.2-0.6,0.4-1,0.6c-0.3,0.2-0.6,0.2-0.8,0.2c-0.8,0-1.4-0.2-1.8-0.7
		c-0.5-0.5-0.7-1.2-0.7-2.1c0-1.2,0.2-2.4,0.5-3.6c0.4-1.1,0.8-2.2,1.4-3.1c0.6-0.9,1.2-1.6,2-2.1c0.7-0.5,1.4-0.8,2.1-0.8
		c0.6,0,1.2,0.2,1.6,0.7c0.4,0.4,0.6,1,0.6,1.5V19.1z M108.8,26c0.6-0.4,1.1-0.8,1.5-1.3s0.7-1.1,1.1-1.7c0.3-0.6,0.6-1.2,1-1.7
		c0.3-0.6,0.7-1,1.2-1.5c-0.3-0.1-0.5-0.4-0.5-0.7l0-0.3l-1-0.4c-0.5,0.4-1,0.8-1.4,1.3c-0.4,0.5-0.7,1.1-1,1.7
		c-0.3,0.6-0.5,1.3-0.6,2c-0.1,0.7-0.2,1.3-0.2,2V26z"/>
	<path class="st0" d="M120.8,18.6c0,0.4,0.1,0.7,0.1,1.1c0,0.4,0,0.7,0,1.1c0,0.1,0,0.2,0,0.3c0,0.1,0,0.2,0,0.3
		c0.2-0.4,0.5-0.9,0.8-1.4c0.4-0.6,0.7-1.1,1.1-1.6c0.4-0.5,0.8-1,1.2-1.4c0.4-0.4,0.7-0.6,1-0.6c0.7,0,1.2,0.2,1.5,0.6
		c0.3,0.4,0.4,0.7,0.4,1.1c0,1.3-0.1,2.5-0.4,3.7c-0.2,1.2-0.4,2.4-0.4,3.7c0,0.3,0,0.6,0,1c0,0.3,0.1,0.6,0.1,1l0.7,0.5l2.4-0.7
		c0.2-0.1,0.3-0.1,0.4-0.1c0.5,0,0.7,0.2,0.7,0.7c0,0.2-0.2,0.4-0.5,0.7c-0.3,0.2-0.7,0.4-1.1,0.6c-0.4,0.2-0.8,0.3-1.3,0.5
		c-0.4,0.1-0.8,0.2-1,0.2c-0.8,0-1.5-0.4-2.1-1.3c-0.6-0.9-0.9-2.1-0.9-3.6c0-0.6,0-1.2,0.1-1.8c0.1-0.6,0.1-1.1,0.2-1.5
		c-0.6,0.7-1.1,1.5-1.5,2.3c-0.4,0.8-0.9,1.6-1.3,2.5c-0.1,0.3-0.3,0.6-0.4,0.9c-0.1,0.4-0.3,0.7-0.5,1c-0.2,0.3-0.4,0.6-0.7,0.8
		s-0.6,0.3-0.9,0.3c-0.3,0-0.6-0.1-0.8-0.3c-0.2-0.2-0.3-0.5-0.4-0.9c0-0.5,0.1-1.1,0.2-1.7c0.1-0.6,0.3-1.2,0.4-1.8
		c0.2-0.6,0.3-1.2,0.5-1.7c0.2-0.6,0.3-1.1,0.4-1.6v0c0-0.3,0.1-0.6,0.1-0.9c0-0.4,0-0.7,0.1-1.1c0-0.3,0.1-0.6,0.2-0.9
		c0.1-0.2,0.3-0.4,0.5-0.4C120.4,18,120.6,18.2,120.8,18.6L120.8,18.6z"/>
	<path class="st0" d="M131.5,22.8c0.1-1,0.2-1.9,0.3-2.8s0.3-1.9,0.5-2.8c-1.1,0.2-1.8,0.4-2.3,0.6c-0.5,0.2-0.8,0.3-1,0.3
		c-0.4,0-0.5-0.2-0.5-0.7c0-0.4,0.3-0.9,0.9-1.3s1.2-0.8,2-1.1c0.5-0.4,0.8-0.8,1.1-1.1c0.3-0.3,0.5-0.7,0.7-1.1
		c0.2-0.4,0.3-0.8,0.4-1.2c0.1-0.4,0.3-1,0.4-1.6c0.1-0.3,0.2-0.7,0.3-1.3c0.1-0.6,0.3-1.2,0.5-1.8c0.2-0.6,0.5-1.2,0.8-1.6
		c0.3-0.5,0.7-0.7,1.2-0.7c0.5,0,0.7,0.2,0.7,0.7c0,0.2,0,0.6-0.1,1c-0.1,0.4-0.2,1-0.4,1.6c-0.2,0.7-0.4,1.5-0.6,2.5
		c-0.2,1-0.5,2.1-0.7,3.5c0.3,0,0.6,0,0.8,0c0.3,0,0.5,0,0.8,0c0.3,0,0.7,0,1.2,0c0.5,0,0.9,0,1.3,0.1c0.4,0,0.8,0.1,1.1,0.2
		c0.3,0.1,0.4,0.3,0.4,0.6c0,0.3-0.3,0.5-0.8,0.7c-0.5,0.2-1.1,0.3-1.8,0.5c-0.7,0.1-1.4,0.3-2.1,0.4c-0.7,0.1-1.2,0.3-1.6,0.4
		c-0.3,1.4-0.6,2.9-0.8,4.5c-0.2,1.6-0.4,3.1-0.4,4.5c0,0.2,0,0.4,0,0.7c0,0.3,0,0.6,0,0.9c0,0.3,0,0.6,0.1,0.8
		c0,0.2,0.1,0.3,0.2,0.3c0.3,0,1-0.5,2-1.4c1-1,2.1-2.3,3.2-4.1c0.1-0.1,0.3-0.2,0.5-0.2s0.4,0.1,0.5,0.2c0.1,0.1,0.2,0.3,0.2,0.5
		c0,0.1-0.1,0.3-0.2,0.5c-0.4,0.8-0.9,1.6-1.5,2.5c-0.6,0.9-1.2,1.6-1.8,2.3c-0.6,0.7-1.2,1.2-1.8,1.7s-1.2,0.7-1.7,0.7
		c-0.5,0-0.9-0.2-1.2-0.5s-0.6-0.8-0.7-1.3c-0.2-0.5-0.3-1-0.4-1.6c-0.1-0.6-0.1-1.1-0.1-1.5c0-0.6,0-1.2,0.1-1.7
		C131.4,23.8,131.4,23.3,131.5,22.8z"/>
	<path class="st0" d="M149.7,22.6c0.2-1.4,0.4-2.8,0.6-4.2c0.2-1.4,0.4-2.8,0.7-4.2c0.3-1.4,0.6-2.8,1-4.2c0.4-1.4,0.9-2.7,1.5-4
		c0.3-0.6,0.6-1.3,1.1-2c0.4-0.7,0.9-1.3,1.4-1.9c0.5-0.6,1.1-1,1.7-1.4c0.6-0.4,1.3-0.6,2-0.6c0.9,0,1.7,0.3,2.4,1
		c0.7,0.7,1,1.6,1,2.7c0,1.6-0.3,3.2-0.9,4.6c-0.6,1.4-1.4,2.8-2.3,4c-0.9,1.2-2,2.4-3.1,3.4c-1.2,1.1-2.3,2.1-3.4,3l-0.4,0.3
		c-0.1,0.9-0.3,1.7-0.4,2.6c-0.1,0.9-0.2,1.7-0.3,2.6c0.1-0.2,0.3-0.4,0.6-0.7c0.2-0.3,0.5-0.6,0.8-0.8c0.3-0.3,0.6-0.5,0.9-0.7
		c0.3-0.2,0.6-0.3,0.8-0.3c0.1,0,0.3,0,0.4,0c0.7,0.3,1.1,0.7,1.3,1.2c0.2,0.5,0.4,1,0.4,1.6c0,0.6,0.1,1.2,0.1,1.9
		c0,0.6,0.1,1.3,0.3,1.9c0.1,0,0.1,0,0.2,0c0.2-0.2,0.5-0.4,0.9-0.7c0.3-0.3,0.6-0.4,0.9-0.4c0.5,0,0.7,0.2,0.7,0.7
		c0,0.1-0.1,0.3-0.3,0.6c-0.2,0.2-0.4,0.5-0.7,0.7c-0.3,0.2-0.5,0.4-0.9,0.6c-0.3,0.2-0.6,0.2-0.9,0.2c-0.5,0-0.9-0.3-1.2-0.8
		s-0.5-1.2-0.7-1.9c-0.1-0.7-0.2-1.4-0.3-2.1c-0.1-0.7-0.1-1.1-0.2-1.4c-0.5,0.4-0.9,0.9-1.2,1.4c-0.3,0.5-0.6,1-0.9,1.6
		c-0.3,0.5-0.5,1.1-0.8,1.7c-0.3,0.6-0.6,1.1-1,1.5c-0.3,0.2-0.5,0.3-0.8,0.3c-0.3,0-0.5-0.1-0.7-0.3c-0.2-0.2-0.3-0.4-0.4-0.7
		c-0.1-0.3-0.2-0.6-0.2-1s0-0.7,0-1.1c0-0.8,0.1-1.6,0.2-2.4C149.5,24,149.6,23.2,149.7,22.6z M155,10.2c-0.3,1-0.6,2-0.9,3
		c-0.2,1-0.5,2-0.7,3l1-0.9c0.8-0.8,1.6-1.6,2.3-2.5c0.7-0.9,1.4-1.8,2-2.7c0.6-0.9,1-1.9,1.4-3c0.4-1,0.5-2.2,0.5-3.4
		c0-0.3-0.1-0.5-0.3-0.7c-0.2-0.2-0.4-0.3-0.7-0.3c-0.6,0-1.1,0.3-1.6,0.8c-0.5,0.5-0.9,1.2-1.3,1.9c-0.4,0.7-0.7,1.5-1,2.4
		C155.5,8.8,155.2,9.6,155,10.2z"/>
	<path class="st0" d="M167,19.1c0,0.1,0,0.2,0,0.2c0,0.1,0,0.1-0.1,0.2c0.1,0,0.1,0,0.2,0c0,0,0.1,0,0.2,0c0.4,0,0.7,0.1,0.9,0.4
		s0.3,0.7,0.3,1.1c-0.1,0.4-0.2,0.9-0.4,1.5c-0.2,0.6-0.3,1.2-0.5,1.8c-0.2,0.6-0.3,1.3-0.5,1.9c-0.1,0.6-0.2,1.2-0.2,1.6
		c0,0.3,0,0.5,0.1,0.7c0.4,0,0.8-0.2,1.2-0.5c0.4-0.3,0.7-0.7,1.1-1c0.4-0.4,0.7-0.7,1-1c0.3-0.3,0.6-0.5,0.8-0.5
		c0.5,0,0.7,0.2,0.7,0.7c0,0.2-0.1,0.4-0.2,0.6c-0.1,0.1-0.4,0.4-0.7,0.8c-0.3,0.4-0.7,0.8-1.2,1.3c-0.4,0.4-0.9,0.8-1.5,1.2
		c-0.5,0.4-1.1,0.5-1.6,0.5c-0.4,0-0.7-0.1-1-0.4c-0.3-0.2-0.5-0.6-0.6-0.9c-0.1-0.4-0.2-0.8-0.3-1.2c0-0.4-0.1-0.8-0.1-1.1
		c-0.2,0.2-0.4,0.4-0.7,0.6c-0.3,0.2-0.6,0.5-0.9,0.7c-0.3,0.2-0.6,0.4-1,0.6c-0.3,0.2-0.6,0.2-0.8,0.2c-0.8,0-1.4-0.2-1.8-0.7
		c-0.5-0.5-0.7-1.2-0.7-2.1c0-1.2,0.2-2.4,0.5-3.6s0.8-2.2,1.4-3.1c0.6-0.9,1.2-1.6,2-2.1c0.7-0.5,1.4-0.8,2.1-0.8
		c0.6,0,1.2,0.2,1.6,0.7c0.4,0.4,0.6,1,0.6,1.5V19.1z M161.3,26c0.6-0.4,1.1-0.8,1.5-1.3s0.7-1.1,1.1-1.7c0.3-0.6,0.6-1.2,1-1.7
		c0.3-0.6,0.7-1,1.2-1.5c-0.3-0.1-0.5-0.4-0.5-0.7l0-0.3l-1-0.4c-0.5,0.4-1,0.8-1.4,1.3c-0.4,0.5-0.7,1.1-1,1.7
		c-0.3,0.6-0.5,1.3-0.6,2c-0.1,0.7-0.2,1.3-0.2,2V26z"/>
	<path class="st0" d="M181.1,10.7c-0.8,1.3-1.7,2.5-2.8,3.6c-1,1.1-2.1,2.2-3.2,3.2l-0.2,1.2c0.5-0.6,1.1-1.1,1.7-1.5
		c0.6-0.4,1.2-0.6,1.8-0.6c0.3,0,0.6,0.1,0.9,0.2c0.3,0.1,0.6,0.4,0.9,0.7c0.3,0.3,0.5,0.8,0.7,1.3c0.2,0.5,0.3,1.1,0.3,1.9
		c0,1-0.2,2.1-0.5,3.2c-0.4,1.1-0.8,2.1-1.4,2.9c0.5-0.1,0.9-0.2,1.4-0.2c0.4-0.1,0.9-0.2,1.4-0.2c0.6,0,0.8,0.2,0.8,0.7
		c0,0.2-0.2,0.4-0.6,0.6c-0.4,0.2-0.9,0.3-1.5,0.5c-0.6,0.1-1.2,0.2-1.8,0.3c-0.6,0.1-1.1,0.2-1.5,0.2c-0.8,0.5-1.6,0.8-2.4,0.8
		c-0.2,0-0.4,0-0.6,0c-0.2,0-0.4,0-0.6-0.1c-0.2,0.6-0.5,1-0.7,1.2c-0.3,0.2-0.6,0.3-0.9,0.3c-0.3,0-0.7-0.1-1-0.4
		c-0.3-0.3-0.5-0.8-0.5-1.6c0-0.9,0.1-2.2,0.3-4c0.2-1.8,0.5-3.7,0.9-5.8c0.4-2.1,0.8-4.2,1.4-6.4c0.6-2.2,1.2-4.1,1.9-5.9
		c0.7-1.8,1.5-3.2,2.4-4.4c0.9-1.1,1.8-1.7,2.8-1.7c0.7,0,1.3,0.3,1.8,0.8c0.5,0.5,0.8,1.2,0.8,1.9c0,1.3-0.2,2.6-0.5,3.8
		C182.3,8.4,181.8,9.6,181.1,10.7z M178.2,19.1c-0.2,0-0.5,0.4-0.9,1.1c-0.4,0.7-0.8,1.5-1.3,2.5c-0.4,0.9-0.8,1.8-1.1,2.7
		c-0.3,0.9-0.5,1.5-0.5,1.8c0,0.1,0,0.1,0,0.2l1.7-0.2c0.3-0.1,0.6-0.4,0.9-0.7c0.3-0.3,0.6-0.7,0.9-1.3c0.3-0.5,0.5-1.1,0.7-1.8
		c0.2-0.7,0.3-1.5,0.3-2.4c0-0.4-0.1-0.8-0.2-1.2C178.7,19.4,178.5,19.2,178.2,19.1L178.2,19.1z M174.5,26.3
		C174.5,26.2,174.5,26.2,174.5,26.3c0-0.1,0-0.1,0-0.1L174.5,26.3C174.5,26.3,174.5,26.3,174.5,26.3L174.5,26.3z M180.4,3.2
		c-0.7,0.6-1.3,1.3-1.8,2.1c-0.5,0.9-1,1.8-1.3,2.8c-0.4,1-0.7,2.1-1,3.2c-0.3,1.1-0.5,2.3-0.7,3.4c0.7-0.8,1.4-1.5,2-2.3
		c0.6-0.8,1.2-1.6,1.7-2.5c0.3-0.6,0.6-1.1,0.7-1.6c0.2-0.5,0.3-1,0.4-1.4c0.1-0.5,0.1-0.9,0.2-1.4c0-0.5,0.1-1,0.1-1.6
		c0-0.1,0-0.2,0-0.4c0-0.1,0-0.2,0-0.3C180.5,3.1,180.5,3.1,180.4,3.2z"/>
	<path class="st0" d="M184.2,19.1c0.4-0.4,0.7-0.7,0.9-0.7c0.3,0,0.5,0.3,0.5,0.8c-0.2,1.4-0.5,2.8-0.7,4c-0.2,1.2-0.3,2.2-0.3,3
		c0,0.8,0.2,1.2,0.5,1.3c0.2,0.1,0.4,0.1,0.7,0.1c0.7,0,1.5-0.2,2.4-0.6c0.9-0.4,1.6-0.9,2.2-1.6c0.2-0.1,0.3-0.1,0.4-0.1
		c0.2,0,0.4,0.1,0.5,0.2c0.1,0.1,0.2,0.3,0.2,0.5c0,0.1-0.1,0.3-0.2,0.5c-1.5,1.2-2.8,2.1-3.9,2.6c-1.1,0.5-2,0.7-2.8,0.7
		c-0.9,0-1.5-0.3-1.9-0.9c-0.4-0.6-0.6-1.3-0.6-2.2c0-1.6,0.2-3,0.7-4.3C183.3,21.3,183.7,20.2,184.2,19.1z M187,11
		c0.1,0.2,0.2,0.5,0.2,0.7c0,0.3-0.1,0.5-0.2,0.7c-0.2,0.2-0.4,0.3-0.6,0.3c-0.2,0-0.4-0.1-0.6-0.3c-0.2-0.2-0.3-0.4-0.3-0.6
		c0-0.2,0.1-0.4,0.3-0.6c0.2-0.2,0.4-0.3,0.6-0.3C186.6,10.8,186.9,10.9,187,11z"/>
	<path class="st0" d="M190.5,22.8c0.1-1,0.2-1.9,0.3-2.8s0.3-1.9,0.5-2.8c-1.1,0.2-1.8,0.4-2.3,0.6c-0.5,0.2-0.8,0.3-1,0.3
		c-0.4,0-0.5-0.2-0.5-0.7c0-0.4,0.3-0.9,0.9-1.3s1.2-0.8,2-1.1c0.5-0.4,0.8-0.8,1.1-1.1c0.3-0.3,0.5-0.7,0.7-1.1
		c0.2-0.4,0.3-0.8,0.4-1.2c0.1-0.4,0.3-1,0.4-1.6c0.1-0.3,0.2-0.7,0.3-1.3c0.1-0.6,0.3-1.2,0.5-1.8c0.2-0.6,0.5-1.2,0.8-1.6
		c0.3-0.5,0.7-0.7,1.2-0.7c0.5,0,0.7,0.2,0.7,0.7c0,0.2,0,0.6-0.1,1c-0.1,0.4-0.2,1-0.4,1.6c-0.2,0.7-0.4,1.5-0.6,2.5
		c-0.2,1-0.5,2.1-0.7,3.5c0.3,0,0.6,0,0.8,0c0.3,0,0.5,0,0.8,0c0.3,0,0.7,0,1.2,0c0.5,0,0.9,0,1.3,0.1c0.4,0,0.8,0.1,1.1,0.2
		c0.3,0.1,0.4,0.3,0.4,0.6c0,0.3-0.3,0.5-0.8,0.7c-0.5,0.2-1.1,0.3-1.8,0.5c-0.7,0.1-1.4,0.3-2.1,0.4c-0.7,0.1-1.2,0.3-1.6,0.4
		c-0.3,1.4-0.6,2.9-0.8,4.5c-0.2,1.6-0.4,3.1-0.4,4.5c0,0.2,0,0.4,0,0.7c0,0.3,0,0.6,0,0.9c0,0.3,0,0.6,0.1,0.8
		c0,0.2,0.1,0.3,0.2,0.3c0.3,0,1-0.5,2-1.4c1-1,2.1-2.3,3.2-4.1c0.1-0.1,0.3-0.2,0.5-0.2s0.4,0.1,0.5,0.2c0.1,0.1,0.2,0.3,0.2,0.5
		c0,0.1-0.1,0.3-0.2,0.5c-0.4,0.8-0.9,1.6-1.5,2.5c-0.6,0.9-1.2,1.6-1.8,2.3c-0.6,0.7-1.2,1.2-1.8,1.7s-1.2,0.7-1.7,0.7
		c-0.5,0-0.9-0.2-1.2-0.5s-0.6-0.8-0.7-1.3c-0.2-0.5-0.3-1-0.4-1.6c-0.1-0.6-0.1-1.1-0.1-1.5c0-0.6,0-1.2,0.1-1.7
		C190.4,23.8,190.5,23.3,190.5,22.8z"/>
	<path class="st0" d="M204.9,19.1c0,0.1,0,0.2,0,0.2c0,0.1,0,0.1-0.1,0.2c0.1,0,0.1,0,0.2,0c0,0,0.1,0,0.2,0c0.4,0,0.7,0.1,0.9,0.4
		s0.3,0.7,0.3,1.1c-0.1,0.4-0.2,0.9-0.4,1.5c-0.2,0.6-0.3,1.2-0.5,1.8c-0.2,0.6-0.3,1.3-0.5,1.9c-0.1,0.6-0.2,1.2-0.2,1.6
		c0,0.3,0,0.5,0.1,0.7c0.4,0,0.8-0.2,1.2-0.5c0.4-0.3,0.7-0.7,1.1-1c0.4-0.4,0.7-0.7,1-1c0.3-0.3,0.6-0.5,0.8-0.5
		c0.5,0,0.7,0.2,0.7,0.7c0,0.2-0.1,0.4-0.2,0.6c-0.1,0.1-0.4,0.4-0.7,0.8c-0.3,0.4-0.7,0.8-1.2,1.3c-0.4,0.4-0.9,0.8-1.5,1.2
		c-0.5,0.4-1.1,0.5-1.6,0.5c-0.4,0-0.7-0.1-1-0.4c-0.3-0.2-0.5-0.6-0.6-0.9c-0.1-0.4-0.2-0.8-0.3-1.2c0-0.4-0.1-0.8-0.1-1.1
		c-0.2,0.2-0.4,0.4-0.7,0.6c-0.3,0.2-0.6,0.5-0.9,0.7c-0.3,0.2-0.6,0.4-1,0.6c-0.3,0.2-0.6,0.2-0.8,0.2c-0.8,0-1.4-0.2-1.8-0.7
		c-0.5-0.5-0.7-1.2-0.7-2.1c0-1.2,0.2-2.4,0.5-3.6s0.8-2.2,1.4-3.1c0.6-0.9,1.2-1.6,2-2.1c0.7-0.5,1.4-0.8,2.1-0.8
		c0.6,0,1.2,0.2,1.6,0.7c0.4,0.4,0.6,1,0.6,1.5V19.1z M199.3,26c0.6-0.4,1.1-0.8,1.5-1.3s0.7-1.1,1.1-1.7c0.3-0.6,0.6-1.2,1-1.7
		c0.3-0.6,0.7-1,1.2-1.5c-0.3-0.1-0.5-0.4-0.5-0.7l0-0.3l-1-0.4c-0.5,0.4-1,0.8-1.4,1.3c-0.4,0.5-0.7,1.1-1,1.7
		c-0.3,0.6-0.5,1.3-0.6,2c-0.1,0.7-0.2,1.3-0.2,2V26z"/>
	<path class="st0" d="M211.4,22.8c0.1-1,0.2-1.9,0.3-2.8s0.3-1.9,0.5-2.8c-1.1,0.2-1.8,0.4-2.3,0.6c-0.5,0.2-0.8,0.3-1,0.3
		c-0.4,0-0.5-0.2-0.5-0.7c0-0.4,0.3-0.9,0.9-1.3s1.2-0.8,2-1.1c0.5-0.4,0.8-0.8,1.1-1.1c0.3-0.3,0.5-0.7,0.7-1.1
		c0.2-0.4,0.3-0.8,0.4-1.2c0.1-0.4,0.3-1,0.4-1.6c0.1-0.3,0.2-0.7,0.3-1.3c0.1-0.6,0.3-1.2,0.5-1.8c0.2-0.6,0.5-1.2,0.8-1.6
		c0.3-0.5,0.7-0.7,1.2-0.7c0.5,0,0.7,0.2,0.7,0.7c0,0.2,0,0.6-0.1,1c-0.1,0.4-0.2,1-0.4,1.6c-0.2,0.7-0.4,1.5-0.6,2.5
		c-0.2,1-0.5,2.1-0.7,3.5c0.3,0,0.6,0,0.8,0c0.3,0,0.5,0,0.8,0c0.3,0,0.7,0,1.2,0c0.5,0,0.9,0,1.3,0.1c0.4,0,0.8,0.1,1.1,0.2
		c0.3,0.1,0.4,0.3,0.4,0.6c0,0.3-0.3,0.5-0.8,0.7c-0.5,0.2-1.1,0.3-1.8,0.5c-0.7,0.1-1.4,0.3-2.1,0.4c-0.7,0.1-1.2,0.3-1.6,0.4
		c-0.3,1.4-0.6,2.9-0.8,4.5c-0.2,1.6-0.4,3.1-0.4,4.5c0,0.2,0,0.4,0,0.7c0,0.3,0,0.6,0,0.9c0,0.3,0,0.6,0.1,0.8
		c0,0.2,0.1,0.3,0.2,0.3c0.3,0,1-0.5,2-1.4c1-1,2.1-2.3,3.2-4.1c0.1-0.1,0.3-0.2,0.5-0.2s0.4,0.1,0.5,0.2c0.1,0.1,0.2,0.3,0.2,0.5
		c0,0.1-0.1,0.3-0.2,0.5c-0.4,0.8-0.9,1.6-1.5,2.5c-0.6,0.9-1.2,1.6-1.8,2.3c-0.6,0.7-1.2,1.2-1.8,1.7s-1.2,0.7-1.7,0.7
		c-0.5,0-0.9-0.2-1.2-0.5s-0.6-0.8-0.7-1.3c-0.2-0.5-0.3-1-0.4-1.6c-0.1-0.6-0.1-1.1-0.1-1.5c0-0.6,0-1.2,0.1-1.7
		C211.3,23.8,211.4,23.3,211.4,22.8z"/>
</g>
</svg>
