<?xml version="1.0" encoding="utf-8"?>
<!-- Generator: Adobe Illustrator 19.1.0, SVG Export Plug-In . SVG Version: 6.00 Build 0)  -->
<!DOCTYPE svg PUBLIC "-//W3C//DTD SVG 1.1//EN" "http://www.w3.org/Graphics/SVG/1.1/DTD/svg11.dtd">
<svg version="1.1" id="Calque_1" xmlns="http://www.w3.org/2000/svg" xmlns:xlink="http://www.w3.org/1999/xlink" x="0px" y="0px"
	 viewBox="-63.5 64.5 53 17.7" style="enable-background:new -63.5 64.5 53 17.7;" xml:space="preserve">
<path d="M-14,79.4c-0.6,0.7-1.2,0.9-1.4,0.9c-0.1,0-0.1-0.1-0.1-0.2c0-0.1-0.1-0.3-0.1-0.5c0-0.2,0-0.4,0-0.6c0-0.2,0-0.3,0-0.5
	c0-0.9,0.1-1.9,0.2-3c0.2-1,0.4-2,0.6-3c0.3-0.1,0.6-0.2,1.1-0.3c0.5-0.1,1-0.2,1.4-0.3c0.5-0.1,0.9-0.2,1.2-0.3
	c0.4-0.1,0.5-0.3,0.5-0.4c0-0.2-0.1-0.3-0.3-0.4c-0.2-0.1-0.4-0.1-0.7-0.2c-0.3,0-0.6,0-0.9,0c-0.3,0-0.6,0-0.8,0
	c-0.2,0-0.4,0-0.5,0c-0.2,0-0.4,0-0.6,0c0.2-0.9,0.3-1.6,0.5-2.3c0.2-0.6,0.3-1.2,0.4-1.6c0.1-0.4,0.2-0.8,0.3-1.1
	c0.1-0.3,0.1-0.5,0.1-0.6c0-0.3-0.2-0.4-0.5-0.4c-0.3,0-0.6,0.2-0.8,0.5c-0.2,0.3-0.4,0.7-0.6,1.1c-0.2,0.4-0.3,0.8-0.4,1.2
	c-0.1,0.4-0.2,0.7-0.2,0.9c-0.1,0.4-0.2,0.7-0.3,1c-0.1,0.3-0.2,0.6-0.3,0.8c-0.1,0.2-0.3,0.5-0.5,0.7c-0.2,0.2-0.4,0.5-0.8,0.7
	c-0.5,0.2-1,0.4-1.4,0.7c-0.4,0.3-0.6,0.5-0.6,0.8c0,0.3,0.1,0.5,0.4,0.5c0.2,0,0.4-0.1,0.7-0.2c0.3-0.1,0.8-0.2,1.6-0.4
	c-0.1,0.6-0.3,1.2-0.3,1.8c-0.1,0.6-0.2,1.2-0.2,1.9c0,0.3-0.1,0.7-0.1,1c0,0.4,0,0.7,0,1.1c0,0.3,0,0.6,0.1,1c0,0.4,0.1,0.7,0.3,1
	c0.1,0.3,0.3,0.6,0.5,0.8c0.2,0.2,0.5,0.3,0.8,0.3c0.4,0,0.8-0.1,1.2-0.4c0.4-0.3,0.8-0.7,1.3-1.1C-12.9,80-11.1,76-14,79.4z
	 M-20.9,79.6l0.5,0.3l1.7-0.5c0.1,0,0.2-0.1,0.2-0.1c0.3,0,0.5,0.2,0.5,0.5c0,0.1-0.1,0.3-0.3,0.4c-0.2,0.2-0.5,0.3-0.7,0.4
	c-0.3,0.1-0.6,0.2-0.9,0.3c-0.3,0.1-0.5,0.1-0.7,0.1c-0.6,0-1.1-0.3-1.5-0.8c-0.4-0.6-0.6-1.3-0.6-2.4c0-0.4,0-0.8,0.1-1.2
	c0-0.4,0.1-0.7,0.1-1c-0.4,0.5-0.7,1-1,1.5c-0.3,0.5-0.6,1.1-0.9,1.6c-0.1,0.2-0.2,0.4-0.3,0.6c-0.1,0.2-0.2,0.5-0.3,0.7
	c-0.1,0.2-0.3,0.4-0.5,0.5c-0.2,0.1-0.4,0.2-0.6,0.2c-0.2,0-0.4-0.1-0.5-0.2c-0.1-0.1-0.2-0.3-0.3-0.5c-0.1,0.1-0.3,0.3-0.4,0.4
	c-0.3,0.3-0.6,0.5-1,0.8c-0.4,0.2-0.7,0.3-1.1,0.3c-0.3,0-0.5-0.1-0.7-0.2c-0.2-0.2-0.3-0.4-0.4-0.6c-0.1-0.2-0.2-0.5-0.2-0.8
	c0-0.3,0-0.5,0-0.8c-0.1,0.1-0.3,0.3-0.5,0.4c-0.2,0.2-0.4,0.3-0.6,0.5c-0.2,0.2-0.4,0.3-0.7,0.4c-0.2,0.1-0.4,0.2-0.6,0.2
	c-0.5,0-0.9-0.2-1.3-0.5c-0.2-0.2-0.3-0.5-0.4-0.8c-0.3,0.4-0.6,0.7-0.9,1c-0.4,0.4-0.8,0.8-1.3,1.1c-0.4,0.3-0.8,0.4-1.2,0.4
	c-0.3,0-0.6-0.1-0.8-0.3c-0.2-0.2-0.4-0.5-0.5-0.8c-0.1-0.3-0.2-0.7-0.3-1c-0.1-0.4-0.1-0.7-0.1-1c0-0.4,0-0.8,0-1.1
	c0-0.2,0-0.5,0.1-0.7c0,0,0,0-0.1,0c-0.3,0.2-0.6,0.4-1,0.6c-0.4,0.2-0.8,0.4-1.3,0.6c-0.4,0.2-0.8,0.4-1.1,0.6
	c0,0.6-0.1,1.1-0.3,1.6c-0.2,0.4-0.4,0.8-0.7,1.1c-0.3,0.3-0.6,0.5-1,0.6c-0.3,0.1-0.7,0.2-1,0.2c-0.5,0-0.8-0.1-1.1-0.4
	c-0.3-0.2-0.5-0.6-0.5-0.9c0-0.2,0.1-0.5,0.3-0.7c0.2-0.2,0.4-0.5,0.7-0.7c0.3-0.2,0.5-0.4,0.8-0.6c0.3-0.2,0.5-0.3,0.7-0.4
	c-0.1-0.7-0.2-1.3-0.3-2c-0.1-0.6-0.2-1.2-0.2-1.8c-0.5,0.5-2.6,3.7-3.1,4.2c-0.5,0.5-0.9,1.4-1.2,2c-0.1,0.1-0.1,0.1-0.2,0.1l0,0
	c0,0,0,0,0,0c-0.1,0-0.2,0.1-0.2,0.1c0,0,0,0,0,0c-0.1,0-0.3,0-0.4,0c-0.6,0-1.1-0.3-1.5-0.8c-0.4-0.6-0.6-1.3-0.6-2.4
	c0-0.4,0-0.8,0.1-1.2c0-0.4,0.1-0.7,0.1-1c-0.4,0.5-0.7,1-1,1.5c-0.3,0.5-0.6,1.1-0.9,1.6c-0.1,0.2-0.2,0.4-0.3,0.6
	c-0.1,0.2-0.2,0.5-0.3,0.7c-0.1,0.2-0.3,0.4-0.5,0.5c-0.2,0.1-0.4,0.2-0.6,0.2c-0.2,0-0.4-0.1-0.5-0.2c-0.1-0.1-0.2-0.3-0.3-0.6
	c0-0.1,0-0.3,0-0.5c-0.7,0.5-1.4,0.9-2,1.2c-0.7,0.3-1.4,0.5-1.9,0.5c-0.6,0-1-0.2-1.3-0.6c-0.3-0.4-0.4-0.9-0.4-1.4
	c0-1.1,0.2-2,0.5-2.8c0.3-0.8,0.6-1.6,0.9-2.3c0.2-0.3,0.5-0.4,0.6-0.4c0.2,0,0.3,0.2,0.3,0.5c-0.2,0.9-0.3,1.8-0.5,2.6
	c-0.2,0.8-0.2,1.5-0.2,2c0,0.5,0.1,0.8,0.3,0.8c0.1,0.1,0.3,0.1,0.5,0.1c0.5,0,1-0.1,1.6-0.4c0.6-0.3,1.1-0.6,1.5-1
	c0.1,0,0.1,0,0.2,0c0-0.2,0.1-0.3,0.1-0.5c0.1-0.4,0.2-0.8,0.3-1.1c0.1-0.4,0.2-0.7,0.3-1v0c0-0.2,0-0.4,0-0.6c0-0.2,0-0.5,0.1-0.7
	c0-0.2,0.1-0.4,0.2-0.6c0.1-0.2,0.2-0.2,0.4-0.2c0.3,0,0.4,0.1,0.5,0.3h0c0,0.2,0,0.5,0.1,0.7c0,0.2,0,0.5,0,0.7c0,0.1,0,0.1,0,0.2
	c0,0.1,0,0.1,0,0.2c0.1-0.2,0.3-0.6,0.6-0.9c0.2-0.4,0.5-0.7,0.8-1.1c0.3-0.3,0.5-0.6,0.8-0.9c0.3-0.2,0.5-0.4,0.7-0.4
	c0.5,0,0.8,0.1,1,0.4c0.2,0.2,0.3,0.5,0.3,0.7c0,0.8-0.1,1.6-0.2,2.4c-0.2,0.8-0.2,1.6-0.2,2.4c0,0.2,0,0.4,0,0.6
	c0,0.2,0,0.3,0.1,0.5c0.2,0.2,0.5,0.2,1-0.6V79c0.7-1.3,1.6-3,1.9-3.4c0.4-0.6,0.8-1.1,1.2-1.6c0.4-0.5,0.8-1,1.2-1.4
	c0.4-0.4,0.6-0.8,0.8-1.1c0-0.2,0.1-0.3,0.3-0.4c0.2-0.1,0.4-0.1,0.5-0.1c0.2,0,0.4,0.1,0.6,0.2c0.2,0.2,0.2,0.4,0.2,0.7
	c-0.3,1-0.4,1.9-0.4,2.9c0,0.5,0.1,1,0.2,1.4c0.1,0.5,0.2,0.9,0.4,1.4c0.6-0.3,1.1-0.5,1.7-0.7c0.6-0.2,1.1-0.5,1.6-0.7
	c0.1,0,0.2-0.1,0.3-0.1c0.1,0,0.1,0,0.2,0c0-0.4,0.1-0.9,0.2-1.3c0.1-0.6,0.2-1.2,0.3-1.8c-0.7,0.2-1.2,0.3-1.6,0.4
	c-0.3,0.1-0.5,0.2-0.7,0.2c-0.2,0-0.4-0.2-0.4-0.5c0-0.3,0.2-0.6,0.6-0.8c0.4-0.3,0.9-0.5,1.4-0.7c0.3-0.3,0.6-0.5,0.8-0.7
	c0.2-0.2,0.3-0.5,0.5-0.7s0.2-0.5,0.3-0.8c0.1-0.3,0.2-0.6,0.3-1c0.1-0.2,0.1-0.5,0.2-0.9c0.1-0.4,0.2-0.8,0.4-1.2
	c0.2-0.4,0.3-0.8,0.6-1.1c0.2-0.3,0.5-0.5,0.8-0.5c0.3,0,0.5,0.1,0.5,0.4c0,0.2,0,0.4-0.1,0.6c-0.1,0.3-0.1,0.6-0.3,1.1
	c-0.1,0.4-0.2,1-0.4,1.6c-0.2,0.6-0.3,1.4-0.5,2.3c0.2,0,0.4,0,0.6,0c0.2,0,0.4,0,0.5,0c0.2,0,0.5,0,0.8,0s0.6,0,0.9,0
	c0.3,0,0.5,0.1,0.7,0.2c0.2,0.1,0.3,0.2,0.3,0.4c0,0.2-0.2,0.3-0.5,0.4c-0.4,0.1-0.8,0.2-1.2,0.3c-0.5,0.1-1,0.2-1.4,0.3
	c-0.5,0.1-0.9,0.2-1.1,0.3c-0.2,0.9-0.4,1.9-0.6,3c-0.2,1-0.2,2-0.2,3c0,0.1,0,0.3,0,0.5c0,0.2,0,0.4,0,0.6c0,0.2,0,0.4,0.1,0.5
	c0,0.1,0.1,0.2,0.1,0.2c0.2,0,0.7-0.3,1.4-0.9c0.5-0.5,1.1-1.1,1.7-1.9c0.1-0.3,0.1-0.6,0.2-0.9c0.3-0.7,0.6-1.4,1-2
	c0.4-0.6,0.9-1.1,1.3-1.4c0.5-0.3,1-0.5,1.4-0.5c0.4,0,0.8,0.1,1.1,0.4c0.3,0.3,0.4,0.6,0.4,1v0.1c0,0.1,0,0.1,0,0.1
	c0,0,0,0.1,0,0.1c0,0,0.1,0,0.1,0c0,0,0.1,0,0.1,0c0.3,0,0.5,0.1,0.6,0.3c0.1,0.2,0.2,0.4,0.2,0.7c-0.1,0.2-0.1,0.6-0.3,1
	c-0.1,0.4-0.2,0.8-0.3,1.2c-0.1,0.4-0.2,0.8-0.3,1.2c-0.1,0.4-0.1,0.8-0.1,1.1c0,0.2,0,0.3,0.1,0.5c0.3,0,0.6-0.1,0.8-0.3
	c0.3-0.2,0.5-0.4,0.8-0.7c0.2-0.2,0.5-0.5,0.7-0.7c0.1-0.1,0.2-0.2,0.3-0.2c0.1-0.2,0.1-0.4,0.2-0.6c0.1-0.4,0.2-0.8,0.3-1.1
	c0.1-0.4,0.2-0.7,0.3-1v0c0-0.2,0-0.4,0-0.6c0-0.2,0-0.5,0.1-0.7c0-0.2,0.1-0.4,0.2-0.6c0.1-0.2,0.2-0.2,0.4-0.2
	c0.3,0,0.4,0.1,0.5,0.3h0c0,0.2,0,0.5,0.1,0.7c0,0.2,0,0.5,0,0.7c0,0.1,0,0.1,0,0.2c0,0.1,0,0.1,0,0.2c0.1-0.2,0.3-0.6,0.6-0.9
	c0.2-0.4,0.5-0.7,0.8-1.1c0.3-0.3,0.5-0.6,0.8-0.9c0.3-0.2,0.5-0.4,0.7-0.4c0.5,0,0.8,0.1,1,0.4c0.2,0.2,0.3,0.5,0.3,0.7
	c0,0.8-0.1,1.6-0.2,2.4c-0.2,0.8-0.2,1.6-0.2,2.4c0,0.2,0,0.4,0,0.6C-21,79.1-21,79.4-20.9,79.6z M-30.2,74.2l0-0.2l-0.7-0.2
	c-0.4,0.2-0.7,0.5-1,0.9c-0.3,0.3-0.5,0.7-0.7,1.1c-0.2,0.4-0.3,0.8-0.4,1.3s-0.1,0.9-0.1,1.3v0.3c0.4-0.2,0.8-0.5,1-0.9
	c0.3-0.3,0.5-0.7,0.7-1.1c0.2-0.4,0.4-0.8,0.7-1.1c0.2-0.4,0.5-0.7,0.8-1C-30.1,74.6-30.2,74.5-30.2,74.2z M-60,70
	c-0.2,0-0.3-0.1-0.4-0.2c-0.1-0.1-0.2-0.3-0.2-0.4c0-0.2,0.1-0.3,0.2-0.4c0.1-0.1,0.3-0.2,0.4-0.2c0.2,0,0.3,0,0.5,0.1
	c0.1,0.2,0.2,0.3,0.2,0.4c0,0.2-0.1,0.3-0.2,0.4C-59.7,69.9-59.8,70-60,70z"/>
</svg>
