<?xml version="1.0" encoding="utf-8"?>
<!-- Generator: Adobe Illustrator 19.1.0, SVG Export Plug-In . SVG Version: 6.00 Build 0)  -->
<!DOCTYPE svg PUBLIC "-//W3C//DTD SVG 1.1//EN" "http://www.w3.org/Graphics/SVG/1.1/DTD/svg11.dtd">
<svg version="1.1" id="Calque_1" xmlns="http://www.w3.org/2000/svg" xmlns:xlink="http://www.w3.org/1999/xlink" x="0px" y="0px"
	 viewBox="0 0 75.5 84.5" style="enable-background:new 0 0 75.5 84.5;" xml:space="preserve">
<style type="text/css">
	.st0{fill:#FFFFFF;}
	.st1{clip-path:url(#SVGID_2_);fill:#E20613;}
	.st2{clip-path:url(#SVGID_2_);fill:#006645;}
	.st3{clip-path:url(#SVGID_2_);fill:#008A91;}
</style>
<rect class="st0" width="75.5" height="84.5"/>
<g>
	<defs>
		<rect id="SVGID_1_" x="6.3" y="9.2" width="62.4" height="63.3"/>
	</defs>
	<clipPath id="SVGID_2_">
		<use xlink:href="#SVGID_1_"  style="overflow:visible;"/>
	</clipPath>
	<path class="st1" d="M68.6,14.8l-11,5.9c-0.7,0.3-1.6,0.3-2.2,0c-1.2-1.1-1.5-2.7-2.1-4.1c0.5-0.3,1.2-0.3,1.8-0.5l2.8-1.3
		l10.6-5.6h0.2L68.6,14.8z"/>
	<path class="st2" d="M47.6,29c0,0-2.5-6.5-3.7-9.6h-0.1c-2.1,3.9-3.7,8-5.7,11.9c-2.5,2.4-6,2.7-9.3,3.4L28,34.8l0-0.4l11.5-21.6
		l0.3-0.5l8.7,0c0.5,0.8,0.8,1.7,1.2,2.5l4.8,10.5L47.6,29z"/>
	<path class="st3" d="M50,35.1c-9.4,4.5-18.9,9.3-30.2,8.5c-4.5-0.4-9.1-2.6-11.1-6.9c-2.3-3.8-2.1-9.4,0.5-12.9
		c4.1-5.9,10.3-9.6,16.7-11.4c2.2-0.5,5.6-1.4,7.1,1c0.6,1.5,1.1,3,1.4,4.7c-5.4-0.2-10.1,2-14.4,4.8c-3.4,2.4-6.8,5.6-8.1,9.4
		c-0.4,1.1-0.2,2.6,0.6,3.4c3.4,2.7,8.5,2,12.6,1.6c8-1.3,15.4-4.5,22.5-8.3l6.9-3.7l14-7.7l0.2,0l0,6.8l-11.5,6.8L50,35.1z"/>
	<path class="st2" d="M57.2,31.2c0,0,3.7,8.3,5.4,12.3l-7.7,0c-0.9,0-1.7-0.7-2-1.5c-0.9-2.3-2-4.5-2.8-6.9L57.2,31.2z"/>
	<path class="st2" d="M64.5,46.9c0,1.3,0,5.1,0,5.1H7c0-1.5,0-5.1,0-5.1H64.5z"/>
	<path class="st2" d="M12.1,63.2L10.2,59l-1,2.2H11c-0.3,0.9-0.6,0.9-1.1,0.9H8.8l-0.5,1.2H6.8l2.5-5.3h1.8l2.4,5.3H12.1z"/>
	<path class="st2" d="M14.9,58.9h-2l0.5-0.9h5.2c0,0-0.1,0.4-0.3,0.7c-0.2,0.2-0.6,0.2-0.9,0.2h-0.9v4.3h-1.4V58.9z"/>
	<polygon class="st2" points="19.1,63.2 19.1,57.9 20.4,57.9 20.4,62.3 23.4,62.3 23,63.2 	"/>
	<path class="st2" d="M28.8,63.2L26.9,59l-1,2.2h1.8c-0.3,0.9-0.6,0.9-1.1,0.9h-1.1L25,63.2h-1.4l2.5-5.3h1.8l2.4,5.3H28.8z"/>
	<polygon class="st2" points="31,57.9 32.6,57.9 35,61.6 35,57.9 36.2,57.9 36.2,63.2 34.7,63.2 32.1,59.4 32.1,63.2 31,63.2 	"/>
	<path class="st2" d="M39,58.9h-2l0.5-0.9h5.2c0,0-0.1,0.4-0.3,0.7c-0.2,0.2-0.6,0.2-0.9,0.2h-0.9v4.3H39V58.9z"/>
	<rect x="43.4" y="57.9" class="st2" width="1.4" height="5.3"/>
	<path class="st2" d="M47.1,60.7c0-1.1,0.6-1.8,1.7-1.8c1.2,0,1.7,0.8,1.7,1.8c0,0.4-0.1,0.7-0.3,1c-0.2-0.2-0.3-0.3-0.5-0.4
		c-0.4-0.1-0.8,0-1.2,0.2l1,0.9c-0.2,0.1-0.5,0.2-0.7,0.2C47.8,62.5,47.1,61.7,47.1,60.7 M48.9,63.4c0.6,0,1,0,1.5-0.3
		c0,0,0.4,0.5,0.7,0.5c0.2,0,0.7,0,1.2-0.1l-1-0.9c0.4-0.4,0.8-1.1,0.8-1.9c0-1.7-1.4-2.8-3.2-2.8c-2,0-3.2,1.1-3.2,2.8
		C45.6,62,46.8,63.4,48.9,63.4"/>
	<path class="st2" d="M52.8,61.2v-3.2h1.3V61c0,0.7,0.4,1.4,1.3,1.4c1,0,1.3-0.7,1.3-1.4v-3.1h1.3v3.2c0,1.7-1.2,2.3-2.7,2.3
		C54,63.4,52.8,62.8,52.8,61.2"/>
	<path class="st2" d="M59.4,57.9h4.8l0.3,1h-3.8v3.4h3.9l-0.4,0.9h-4.9V57.9z M61.1,60.5c0.3-0.4,0.3-0.4,1.3-0.4l1.4,0l-0.4,0.6
		c-0.2,0.2-0.3,0.2-0.6,0.2h-2L61.1,60.5z"/>
	<polygon class="st2" points="17.4,67.2 19,67.2 20.6,71.1 22.3,67.2 23.7,67.2 21.3,72.4 19.8,72.4 	"/>
	<path class="st2" d="M24.4,67.2h4.8l0.3,0.9h-3.8v3.4h3.9l-0.4,0.9h-4.9V67.2z M26.1,69.7c0.3-0.4,0.3-0.4,1.3-0.4l1.4,0L28.4,70
		c-0.2,0.2-0.3,0.2-0.6,0.2h-2L26.1,69.7z"/>
	<polygon class="st2" points="30.5,67.2 32.2,67.2 34.6,70.8 34.6,67.2 35.8,67.2 35.8,72.4 34.2,72.4 31.6,68.6 31.6,72.4 
		30.5,72.4 	"/>
	<path class="st2" d="M38,71.6v-3.3h0.7c1.4,0,2.3,0.6,2.3,1.6c0,1-0.7,1.7-1.9,1.7H38z M36.7,72.4h3c1.4,0,2.6-0.9,2.6-2.5
		c0-1.9-1.8-2.8-3.6-2.8h-2.1V72.4z"/>
	<path class="st2" d="M45.7,65.7H47l-0.9,0.9h-1L45.7,65.7z M43.1,67.2H48l0.3,0.9h-3.8v3.4h3.9L48,72.4h-4.9V67.2z M44.9,69.7
		c0.3-0.4,0.3-0.4,1.3-0.4h1.4L47.2,70c-0.2,0.2-0.3,0.2-0.6,0.2h-2L44.9,69.7z"/>
	<path class="st2" d="M49,67.2h4.8l0.3,0.9h-3.8v3.4h3.9l-0.4,0.9H49V67.2z M50.7,69.7c0.3-0.4,0.3-0.4,1.3-0.4l1.4,0L53,70
		c-0.2,0.2-0.3,0.2-0.6,0.2h-2L50.7,69.7z"/>
</g>
</svg>
